<?xml version="1.0" encoding="utf-8"?>
<!-- Generator: Adobe Illustrator 21.0.0, SVG Export Plug-In . SVG Version: 6.00 Build 0)  -->
<svg version="1.1" id="Layer_1" xmlns="http://www.w3.org/2000/svg" xmlns:xlink="http://www.w3.org/1999/xlink" x="0px" y="0px"
	 viewBox="0 0 512 440" style="enable-background:new 0 0 512 440;" xml:space="preserve">
<g>
	<path d="M165.6,227.8c50.5,0,89.8-57.1,89.8-106.2c0-50-40.3-90.6-89.8-90.6s-89.8,40.7-89.8,90.6
		C75.9,170.7,115.1,227.8,165.6,227.8z M165.6,47.4c40.5,0,73.4,33.3,73.4,74.2c0,40.7-32.7,89.8-73.4,89.8
		c-40.6,0-73.4-49.1-73.4-89.8C92.3,80.7,125.2,47.4,165.6,47.4z"/>
	<path d="M387,186.8c-49,0-91.3,28.9-111,70.5c-16-15-31.3-22.9-31.3-22.9l-45.8,77.1l-16.1-50.9h15.7v-16.4h-65.6v16.4h13.4
		L131,309.3l-44.4-74.9c0,0-94.4,46.9-83.8,164.4l5,42.2h315.5l2.9-24.4c17.9,10.2,38.6,16.2,60.7,16.2c67.8,0,123-55.2,123-123
		S454.8,186.8,387,186.8z M163.5,260.6h2.1l22.1,69.8l-22,37.1l-23.3-39.3L163.5,260.6z M308.8,424.6H22.4l-3.3-27.7
		c-6.5-54.4,17.7-108.2,62.1-139.5l84.5,142.3l84.5-142.3c6.9,4.9,13.3,10.5,19.3,16.5c-3.5,11.4-5.4,23.4-5.4,35.9
		c0,39.1,18.4,74,47,96.5L308.8,424.6z M387,416.4c-58.8,0-106.6-47.8-106.6-106.6S328.2,203.2,387,203.2S493.6,251,493.6,309.8
		S445.8,416.4,387,416.4z"/>
	<path d="M387,297.8c-9.9,0-17.9-8-17.9-17.9s8-17.9,17.9-17.9c5,0,9.6,2,13,5.6c4.5,4.8,12.1,5,16.9,0.5s5-12.1,0.5-16.9
		c-5.1-5.4-11.5-9.3-18.5-11.4v-8.3c0-6.6-5.4-12-12-12s-12,5.4-12,12v8.3C357.6,245,345,261,345,279.9c0,23.1,18.8,41.8,41.8,41.8
		c9.9,0,17.9,8,17.9,17.9s-8,17.9-17.9,17.9c-5,0-9.6-2-13-5.6c-4.5-4.8-12.1-5-16.9-0.5s-5,12.1-0.5,16.9
		c5.1,5.4,11.5,9.3,18.5,11.4v8.3c0,6.6,5.4,12,12,12s12-5.4,12-12v-8.3c17.3-5.2,29.9-21.2,29.9-40.1
		C428.8,316.6,410.1,297.8,387,297.8z"/>
</g>
</svg>
