<?xml version="1.0" encoding="utf-8"?>
<!-- Generator: Adobe Illustrator 21.0.0, SVG Export Plug-In . SVG Version: 6.00 Build 0)  -->
<svg version="1.1" id="Layer_1" xmlns="http://www.w3.org/2000/svg" xmlns:xlink="http://www.w3.org/1999/xlink" x="0px" y="0px"
	 viewBox="0 0 512 530" style="enable-background:new 0 0 512 530;" xml:space="preserve">
<g>
	<path d="M256,167.5c40.7,0,73.9-33.1,73.9-73.7S296.7,20,256,20s-73.9,33.1-73.9,73.7S215.3,167.5,256,167.5z M256,36.4
		c31.7,0,57.4,25.7,57.4,57.4c0,31.6-25.8,57.4-57.4,57.4c-31.7,0-57.4-25.7-57.4-57.4S224.3,36.4,256,36.4z"/>
	<path d="M362.7,257.6c0-40.7-33.1-73.7-73.9-73.7h-65.7c-40.7,0-73.9,33.1-73.9,73.7v122.9H182V528h147.7V380.5h32.8V257.6H362.7z
		 M346.3,364.1h-32.8v147.5h-49.2V396.9h-16.4v114.7h-49.2V364.1h-32.8V257.6c0-31.6,25.8-57.4,57.4-57.4H289
		c31.7,0,57.4,25.7,57.4,57.4v106.5H346.3z"/>
	<path d="M91.9,225.7c31.9,0,57.9-25.9,57.9-57.8s-26-57.8-57.9-57.8S34,136.1,34,167.9C34,199.8,60,225.7,91.9,225.7z M91.9,126.5
		c22.9,0,41.5,18.6,41.5,41.4s-18.6,41.4-41.5,41.4s-41.5-18.6-41.5-41.4C50.4,145.1,69,126.5,91.9,126.5z"/>
	<path d="M132.9,511.6h-32.6v-81.9H83.9v81.9H43.1V396.9H19l-0.6-94.6c0-25,20.8-45.3,46.4-45.3h67.5v-16.4H64.8
		C30.2,240.7,2,268.4,2,302.4l0.7,110.9h24V528h122.6V413.3h16.4v-16.4h-32.8V511.6z"/>
	<path d="M420.1,225.7c31.9,0,57.9-25.9,57.9-57.8s-26-57.8-57.9-57.8s-57.9,25.9-57.9,57.8S388.2,225.7,420.1,225.7z M420.1,126.5
		c22.9,0,41.5,18.6,41.5,41.4s-18.6,41.4-41.5,41.4s-41.5-18.6-41.5-41.4C378.7,145.1,397.3,126.5,420.1,126.5z"/>
	<path d="M447.2,240.7h-68.1v16.4h68.1c25.6,0,46.4,20.3,46.4,45.2l-0.6,94.6h-24.1v114.7h-40.8v-81.9h-16.4v81.9h-32.6V396.9h-32.8
		v16.4h16.4V528h122.6V413.3h24l0.7-110.9C510,268.4,481.8,240.7,447.2,240.7z"/>
</g>
</svg>
