<?xml version="1.0" encoding="utf-8"?>
<!-- Generator: Adobe Illustrator 21.0.0, SVG Export Plug-In . SVG Version: 6.00 Build 0)  -->
<svg version="1.1" id="Layer_1" xmlns="http://www.w3.org/2000/svg" xmlns:xlink="http://www.w3.org/1999/xlink" x="0px" y="0px"
	 viewBox="0 0 512 530" style="enable-background:new 0 0 512 530;" xml:space="preserve">
<g>
	<path d="M172.7,311.8c6-9.1,9.6-19.9,9.6-31.6c0-31.6-25.7-57.4-57.4-57.4c-31.6,0-57.4,25.7-57.4,57.4c0,11.7,3.6,22.5,9.7,31.6
		c-25.5,12-42.4,37.9-42.4,66.7V444h41v82h98.3v-81.9h41v-65.5C215,349.8,198.1,323.8,172.7,311.8z M124.9,239.2
		c22.6,0,41,18.4,41,41s-18.4,41-41,41s-41-18.4-41-41C83.9,257.6,102.3,239.2,124.9,239.2z M198.6,427.7H174v-41h-16.4v122.9H133
		v-58h-16.4v58H92.1V386.7H75.7v41H51.2v-49.2c0-24.1,15.3-45.6,37.6-53.8c10.2,8.3,22.8,12.8,36.1,12.8s25.9-4.5,36.1-12.8
		c22.3,8.2,37.6,29.7,37.6,53.8V427.7z"/>
	<path d="M434.9,311.8c6-9.1,9.6-19.9,9.6-31.6c0-31.6-25.7-57.4-57.4-57.4c-31.6,0-57.4,25.7-57.4,57.4c0,11.7,3.6,22.5,9.7,31.6
		c-25.5,12-42.4,37.9-42.4,66.7V444h41v82h98.3v-81.9h41v-65.5C477.2,349.8,460.3,323.8,434.9,311.8z M387.1,239.2
		c22.6,0,41,18.4,41,41s-18.4,41-41,41s-41-18.4-41-41S364.5,239.2,387.1,239.2z M460.8,427.7h-24.6v-41h-16.4v122.9h-24.6v-58
		h-16.4v58h-24.6V386.7h-16.4v41h-24.6v-49.2c0-24.1,15.3-45.6,37.6-53.8c10.2,8.3,22.8,12.8,36.1,12.8c13.3,0,25.9-4.5,36.1-12.8
		c22.3,8.2,37.6,29.7,37.6,53.8v49.2H460.8z"/>
	<path d="M362.5,214.6v-32.8h16.4c13.6,0,24.6-11,24.6-24.6V75.4c0-13.6-11-24.6-24.6-24.6h-73.7v-8.2c0-13.6-11-24.6-24.6-24.6
		H133.1c-13.6,0-24.6,11-24.6,24.6v81.9c0,13.6,11,24.6,24.6,24.6h8.2v32.8l43.7-32.8h21.8v8.2c0,13.6,11,24.6,24.6,24.6h87.4
		L362.5,214.6z M206.8,75.4v57.4h-27.3l-21.9,16.4v-16.4H133c-4.5,0-8.2-3.7-8.2-8.2v-82c0-4.6,3.6-8.2,8.2-8.2h147.5
		c4.5,0,8.2,3.7,8.2,8.2v8.2h-57.4C217.9,50.8,206.8,61.8,206.8,75.4z M223.2,157.3V75.4c0-4.5,3.7-8.2,8.2-8.2h147.5
		c4.5,0,8.2,3.7,8.2,8.2v81.9c0,4.5-3.7,8.2-8.2,8.2h-32.8v16.4l-21.9-16.4h-92.9C226.9,165.5,223.2,161.8,223.2,157.3z"/>
	<rect x="297" y="108.1" width="16.4" height="16.4"/>
	<rect x="329.7" y="108.1" width="16.4" height="16.4"/>
	<rect x="264.2" y="108.1" width="16.4" height="16.4"/>
</g>
</svg>
