<?xml version="1.0" encoding="utf-8"?>
<!-- Generator: Adobe Illustrator 21.0.0, SVG Export Plug-In . SVG Version: 6.00 Build 0)  -->
<svg version="1.1" id="Layer_1" xmlns="http://www.w3.org/2000/svg" xmlns:xlink="http://www.w3.org/1999/xlink" x="0px" y="0px"
	 viewBox="0 0 512 530" style="enable-background:new 0 0 512 530;" xml:space="preserve">
<g>
	<path d="M219.1,370.6l-6.6-3.6l-42.3,62.7l-10.6-34.9H170v-16.4h-15.3h-22.9h-15v16.4h10.1l-10.1,33.5l-40-61.4l-6.7,3.7
		C22.7,396.6-3.6,445.2,3,494.4L7.6,528h274.1l4.6-33.6C292.8,445.2,266.5,396.6,219.1,370.6z M143.2,397.2l15.2,50l-15,22.2
		l-15-23.1L143.2,397.2z M269.9,492.2l-2.6,19.4H21.9l-2.6-19.4c-5.4-40.1,14.9-79.9,52.2-103.4l71.8,110.3l74.5-110.4
		C255,412.2,275.4,452,269.9,492.2z"/>
	<path d="M143.1,367.5c38.7,0,70.1-32,70.1-71.3c0-39.4-31.5-71.4-70.1-71.4c-38.7,0-70.1,32-70.1,71.4
		C73,335.6,104.5,367.5,143.1,367.5z M143.1,241.2c29.6,0,53.8,24.7,53.8,55c0,30.3-24.1,54.9-53.8,54.9
		c-29.6,0-53.8-24.6-53.8-54.9C89.4,265.9,113.5,241.2,143.1,241.2z"/>
	<path d="M461,405.3l-4.8-2.6l-5.3,4.3c-12.2,9.9-27.6,15.3-43.3,15.3c-16.1,0-31.8-5.7-44.2-16.1l-4.3-3.6l-4.9,2.7
		c-34.1,18.5-53.1,53.1-48.3,88.2l3.5,25.4h196.4l3.5-25.4C514.1,458.4,495.1,423.8,461,405.3z M493,491.3l-1.5,11.3H323.7
		l-1.5-11.3c-3.7-27.1,9.7-53.1,35.3-68.9c14.5,10.6,32.1,16.4,50.2,16.4c18,0,35.7-5.8,50.2-16.4
		C483.3,438.2,496.7,464.2,493,491.3z"/>
	<path d="M406.6,298c-28.5,0-51.6,23.3-51.6,51.9c0,28.9,23.2,52.4,51.6,52.4c28.5,0,51.6-23.5,51.6-52.4
		C458.2,321.3,435,298,406.6,298z M406.6,385.9c-19.4,0-35.2-16.2-35.2-36.1c0-19.6,15.8-35.5,35.2-35.5c19.4,0,35.2,15.9,35.2,35.5
		C441.8,369.8,426,385.9,406.6,385.9z"/>
	<path d="M422.3,226.3l30.3,23.3V211c15.9-11.9,24.6-27.3,24.6-43.5c0-19.8-12.6-37.2-32.8-49.1V61c0-22.6-18.4-41-41-41H206.8
		c-22.6,0-41,18.4-41,41v81.9c0,19.8,14.1,36.3,32.8,40.1v41.1l57.6-40.3h27.4c10.7,28.6,48.6,49.2,95.2,49.2
		C393.9,233,408.9,230.7,422.3,226.3z M280.6,167.5h-29.5l-36,25.2v-25.2h-8.2c-13.6,0-24.6-11-24.6-24.6V61
		c0-13.6,11-24.6,24.6-24.6h196.7c13.6,0,24.6,11,24.6,24.6v49.5c-14.4-5.4-31.1-8.6-49.2-8.6C323.8,101.9,280.6,130.7,280.6,167.5z
		 M297,167.5c0-26.6,37.5-49.2,81.9-49.2s81.9,22.5,81.9,49.2c0,20.3-24.6,34.9-24.6,34.9v14l-11-8.5c0,0-17.7,8.7-46.3,8.7
		C334.5,216.6,297,194.1,297,167.5z"/>
	<rect x="370.7" y="159.3" width="16.4" height="16.4"/>
	<rect x="403.5" y="159.3" width="16.4" height="16.4"/>
	<rect x="337.9" y="159.3" width="16.4" height="16.4"/>
	<rect x="206.8" y="61" width="196.7" height="16.4"/>
	<rect x="206.8" y="101.9" width="81.9" height="16.4"/>
</g>
</svg>
