<?xml version="1.0" encoding="utf-8"?>
<!-- Generator: Adobe Illustrator 21.0.0, SVG Export Plug-In . SVG Version: 6.00 Build 0)  -->
<svg version="1.1" id="Layer_1" xmlns="http://www.w3.org/2000/svg" xmlns:xlink="http://www.w3.org/1999/xlink" x="0px" y="0px"
	 viewBox="0 0 24 30" style="enable-background:new 0 0 24 30;" xml:space="preserve">
<g>
	<path d="M5,27.4h1.4C6.7,28.9,8,30,9.7,30h11.5c0.6,0,1.1-0.5,1.1-1V14c0-0.6-0.5-1-1.1-1H9c-1.3-0.1-1.8-0.6-1.8-2l0,0l0,0
		C7.2,10,8,9.1,9,9.1h11.9c0.2,0,0.4-0.2,0.4-0.4s-0.2-0.4-0.4-0.4H9c-1.3,0-2.4,1-2.6,2.3H4.3c-1,0-1.8-0.8-1.8-1.9
		s0.8-1.9,1.8-1.9h15.5c0.2,0,0.4-0.2,0.4-0.4C20.2,6.2,20,6,19.8,6H4.3C2.8,6,1.7,7.2,1.7,8.7l0,0v15.5C1.7,26,3.2,27.4,5,27.4z
		 M21.5,14v14.9c0,0.1-0.1,0.2-0.3,0.2H10.3V13.7h5.2l0,0c0,1.1,0,2.8,0,4c0,1.9,0,1.9,0,2c0.1,0.1,0.1,0.2,0.3,0.2
		c0.1,0,0.2,0,0.3-0.1c0.2-0.1,1.3-0.9,1.7-1.2c0.1-0.1,0.2-0.1,0.3,0c0.4,0.3,1.6,1.1,1.7,1.2c0.1,0,0.1,0.1,0.2,0.1s0.1,0,0.2,0
		c0.1-0.1,0.2-0.2,0.2-0.3c0-0.1,0-0.4,0-2.2c0-1.2,0-2.6,0-3.7h0.7C21.4,13.7,21.5,13.8,21.5,14z M19.7,17.4c0,0.6,0,1,0,1.4
		c-0.4-0.3-0.9-0.6-1.1-0.8c-0.4-0.3-0.8-0.3-1.2,0c-0.3,0.2-0.7,0.5-1.1,0.8c0-0.3,0-0.7,0-1.1c0-1.3,0-2.9,0-4l0,0h3.4
		C19.7,14.8,19.7,16.2,19.7,17.4z M9,13.7h0.5v15.4C8.2,29,7.1,28,7.1,26.8V13.2C7.6,13.5,8.2,13.7,9,13.7z M2.5,10.7
		c0.4,0.4,1,0.7,1.6,0.7h0.1h2.2c0,0,0,0,0,0.1v15.1H5c-1.4,0-2.5-1-2.5-2.3V10.7z"/>
	<path d="M20.8,10.6H9c-0.2,0-0.4,0.2-0.4,0.4s0.2,0.4,0.4,0.4h11.8c0.2,0,0.4-0.2,0.4-0.4S21.1,10.6,20.8,10.6z"/>
</g>
</svg>
