<?xml version="1.0" encoding="utf-8"?>
<!-- Generator: Adobe Illustrator 21.0.0, SVG Export Plug-In . SVG Version: 6.00 Build 0)  -->
<svg version="1.1" id="Layer_1" xmlns="http://www.w3.org/2000/svg" xmlns:xlink="http://www.w3.org/1999/xlink" x="0px" y="0px"
	 viewBox="0 0 512 520" style="enable-background:new 0 0 512 520;" xml:space="preserve">
<g>
	<path d="M67.5,12v508h376.9V12H67.5z M428.1,503.6H83.9V28.4H428v475.2H428.1z"/>
	<path d="M215,61.2H100.3v114.7H215V61.2z M198.6,159.5h-81.9v-82h81.9V159.5z"/>
	<rect x="247.8" y="110.3" width="163.9" height="16.4"/>
	<polygon points="188.3,108.1 176.7,96.5 149.9,123.3 139.6,113 128,124.6 149.9,146.5 	"/>
	<path d="M215,208.6H100.3v114.7H215V208.6z M198.6,307h-81.9v-82h81.9V307z"/>
	<rect x="247.8" y="257.8" width="163.9" height="16.4"/>
	<polygon points="188.3,255.5 176.7,244 149.9,270.8 139.6,260.5 128,272.1 149.9,294 	"/>
	<path d="M215,356.1H100.3v114.7H215V356.1z M198.6,454.5h-81.9v-81.9h81.9V454.5z"/>
	<rect x="247.8" y="405.3" width="163.9" height="16.4"/>
	<polygon points="188.3,403 176.7,391.4 149.9,418.3 139.6,408 128,419.6 149.9,441.5 	"/>
</g>
</svg>
