<?xml version="1.0" encoding="utf-8"?>
<!-- Generator: Adobe Illustrator 21.0.0, SVG Export Plug-In . SVG Version: 6.00 Build 0)  -->
<svg version="1.1" id="Layer_1" xmlns="http://www.w3.org/2000/svg" xmlns:xlink="http://www.w3.org/1999/xlink" x="0px" y="0px"
	 viewBox="0 0 512 380" style="enable-background:new 0 0 512 380;" xml:space="preserve">
<g>
	<path d="M155.4,199.6c41.6,0,78.1-40.2,78.1-86.1c0-44-35-79.7-78.1-79.7c-43,0-78.1,35.8-78.1,79.7
		C77.3,159.4,113.8,199.6,155.4,199.6z M155.4,50.3c34,0,61.7,28.4,61.7,63.3c0,36.5-29.4,69.7-61.7,69.7s-61.7-33.2-61.7-69.7
		C93.7,78.7,121.4,50.3,155.4,50.3z"/>
	<path d="M480.2,259.1V149.6c0-54.3-44.2-98.4-98.4-98.4c-54.3,0-98.4,44.2-98.4,98.4v99.3c-20-28-54.4-45.3-54.4-45.3L182.6,276
		L167,232.4h12.6V216H131v16.4h11.3l-15.8,41l-44.8-69.9c0,0-89.8,44.7-78.9,138.5l4.8,36.2h497.2l4.2-31.1
		C513.4,315,502.4,283.3,480.2,259.1z M299.7,149.6c0-45.2,36.8-82.1,82.1-82.1c45.2,0,82.1,36.8,82.1,82.1v94.6
		c-8.8-7.3-19.7-12.4-19.7-12.4s-22.6,22.9-62.3,22.9c-41.5,0-62.3-22.9-62.3-22.9s-10.9,4.8-19.7,12.4v-94.6H299.7z M154.6,246.3
		l16.8,47l-16,25l-17.8-27.8L154.6,246.3z M22.1,361.7l-2.9-21.9c-5.9-44.4,16.4-88.6,57.2-114.3l79,123.2l79-123.2
		c17.4,11,31.7,25.4,41.8,42.1c-34,37.2-19.7,94.2-19.7,94.2L22.1,361.7L22.1,361.7z M492.8,344.9l-2.3,16.9H273
		c0,0-19.6-76.9,45.3-110.5c18.7,12.9,40.6,19.7,63.5,19.7s44.8-6.8,63.5-19.7C479.2,272.2,497.7,308.4,492.8,344.9z"/>
	<path d="M381.8,230.7c35.1,0,65.9-33.9,65.9-72.5c0-37.3-30.8-37.3-49.1-37.3c-2.6,0-30.9,0-33.5,0c-18.4,0-49.1,0-49.1,37.3
		C315.9,196.9,346.7,230.7,381.8,230.7z M365,137.4c2.6,0,30.9,0,33.5,0c26.6,0,32.8,3.9,32.8,20.9c0,29.4-23.6,56.1-49.5,56.1
		s-49.5-26.7-49.5-56.1C332.3,141.3,338.4,137.4,365,137.4z"/>
</g>
</svg>
