<?xml version="1.0" encoding="utf-8"?>
<!-- Generator: Adobe Illustrator 21.0.0, SVG Export Plug-In . SVG Version: 6.00 Build 0)  -->
<svg version="1.1" id="Layer_1" xmlns="http://www.w3.org/2000/svg" xmlns:xlink="http://www.w3.org/1999/xlink" x="0px" y="0px"
	 viewBox="0 0 512 510" style="enable-background:new 0 0 512 510;" xml:space="preserve">
<g>
	<path d="M452.2,201.6c0-54-20.7-104.7-58.3-142.6C357,21.6,308.1,1,256,1S155,21.6,118.2,58.9c-37.6,38-58.4,88.6-58.4,142.7
		c0,95.8,66,153.6,70.1,157.2C102,389.2,88.6,429.2,94.2,471l5.1,38h313.4l5.1-38c5.6-42-7.7-82-35.5-112.4
		C386.3,355,452.2,297.9,452.2,201.6z M370.7,347.2c-6.2-5.5-13.1-10.4-20.4-15c2.1-4.3,4.1-8.8,6-13.3h40.2
		C392,324.9,380.1,341.3,370.7,347.2z M407.4,302.6h-45.1c9.2-27.6,14.6-58.2,15.7-89.7h57.4C433.4,244.5,423.7,275.4,407.4,302.6z
		 M435.6,196.6h-57.5c-0.5-32.3-5.6-62.8-14.4-89.6h46.4C426,133.9,434.8,164.5,435.6,196.6z M382.2,70.4
		c6.3,6.4,11.9,13.2,17.1,20.3h-41.6c-10.3-25.3-24-46.6-40-62.1C341.7,37.6,363.7,51.5,382.2,70.4z M264.2,17.9
		c31.1,4.1,58.6,31.8,76.4,72.8h-76.4V17.9z M264.2,147.7V107h82.7c9.1,26.3,14.5,56.9,15,89.6h-16.2v16.3h16
		c-1.5,42.3-11.1,83.1-27.7,115.8l-50,75.9l-13.6-27.4l13.7-26.7h-59.5l13.7,26.7l-12.2,24.3l-49.3-75.4
		c-15.8-32.3-25-72-26.5-113.1h16v-16.3h-16.2c0.5-32.7,5.9-63.3,15-89.6h82.7v40.8h16.4V147.7z M254.4,381.5l19.3,38.8L256,447.2
		l-19.5-29.9L254.4,381.5z M251.3,366.7h6.2l-3.1,6L251.3,366.7z M247.9,17.9v72.8h-76.4C189.3,49.7,216.7,22.1,247.9,17.9z
		 M129.8,70.4c18.6-18.8,40.6-32.8,64.5-41.8c-16,15.5-29.7,36.7-40,62.1h-41.6C117.9,83.6,123.5,76.7,129.8,70.4z M101.8,107h46.4
		c-8.8,26.8-13.9,57.3-14.4,89.6H76.4C77.2,164.5,86,133.9,101.8,107z M76.7,212.9h57.4c1.1,31.4,6.4,62.1,15.6,89.7h-45.1
		C88.3,275.4,78.6,244.5,76.7,212.9z M115.5,318.9h40.2c1.9,4.6,3.9,9.1,6.1,13.6c-7.3,4.5-14.1,9.5-20.3,14.9
		C131.9,342.3,120,324.9,115.5,318.9z M401.7,468.8l-3.2,23.9h-285l-3.2-23.9c-6.6-49,16.4-95.4,60.1-122.7L256,476.9l86-130.7
		C385.5,373.3,408.2,419.7,401.7,468.8z"/>
	<path d="M173.4,248.3c0,47.1,37.8,86.8,82.6,86.8s82.6-39.8,82.6-86.8c0-46.5-37-84.3-82.6-84.3C210.5,164,173.4,201.8,173.4,248.3
		z M256,180.3c36.5,0,66.3,30.5,66.3,68c0,38.2-30.3,70.5-66.3,70.5s-66.3-32.3-66.3-70.5C189.7,210.8,219.5,180.3,256,180.3z"/>
</g>
</svg>
